<mxfile host="app.diagrams.net" modified="2023-04-19T01:23:03.853Z" agent="Mozilla/5.0 (Macintosh; Intel Mac OS X 10_15_7) AppleWebKit/605.1.15 (KHTML, like Gecko) Version/16.4 Safari/605.1.15" etag="HNKzLv0ja5zomlQweF9L" version="21.1.8" type="device">
  <diagram name="Page-1" id="x3rRmg7dkKr68NqmPHd5">
    <mxGraphModel dx="954" dy="1722" grid="1" gridSize="10" guides="1" tooltips="1" connect="1" arrows="1" fold="1" page="1" pageScale="1" pageWidth="850" pageHeight="1100" math="0" shadow="0">
      <root>
        <mxCell id="0" />
        <mxCell id="1" parent="0" />
        <mxCell id="8MPWDMkR1AbfoVLzU7Ty-1" value="Team" style="swimlane;childLayout=stackLayout;horizontal=1;startSize=50;horizontalStack=0;rounded=1;fontSize=14;fontStyle=0;strokeWidth=2;resizeParent=0;resizeLast=1;shadow=0;dashed=0;align=center;arcSize=4;whiteSpace=wrap;html=1;swimlaneFillColor=none;fillStyle=auto;fillColor=#d5e8d4;strokeColor=#82b366;glass=0;" vertex="1" parent="1">
          <mxGeometry x="50" y="90" width="160" height="150" as="geometry" />
        </mxCell>
        <mxCell id="8MPWDMkR1AbfoVLzU7Ty-2" value="+team_short_name [RU]&lt;br&gt;+team_name [R]&lt;br&gt;+sport&amp;nbsp;[R]&lt;br&gt;+num_players&amp;nbsp;[R]&lt;br&gt;+num_support_staff&lt;br&gt;+team_manager [R]" style="align=left;strokeColor=none;fillColor=none;spacingLeft=4;fontSize=12;verticalAlign=top;resizable=0;rotatable=0;part=1;html=1;" vertex="1" parent="8MPWDMkR1AbfoVLzU7Ty-1">
          <mxGeometry y="50" width="160" height="100" as="geometry" />
        </mxCell>
        <mxCell id="8MPWDMkR1AbfoVLzU7Ty-3" value="Sport" style="swimlane;childLayout=stackLayout;horizontal=1;startSize=50;horizontalStack=0;rounded=1;fontSize=14;fontStyle=0;strokeWidth=2;resizeParent=0;resizeLast=1;shadow=0;dashed=0;align=center;arcSize=4;whiteSpace=wrap;html=1;fillColor=#f8cecc;strokeColor=#b85450;" vertex="1" parent="1">
          <mxGeometry x="320" y="-50" width="160" height="120" as="geometry" />
        </mxCell>
        <mxCell id="8MPWDMkR1AbfoVLzU7Ty-4" value="+sport_id&amp;nbsp;[RU]&lt;br&gt;+name&amp;nbsp;[R]&lt;br&gt;+num_players&lt;br&gt;+sport_type&amp;nbsp;[R]" style="align=left;strokeColor=none;fillColor=none;spacingLeft=4;fontSize=12;verticalAlign=top;resizable=0;rotatable=0;part=1;html=1;" vertex="1" parent="8MPWDMkR1AbfoVLzU7Ty-3">
          <mxGeometry y="50" width="160" height="70" as="geometry" />
        </mxCell>
        <mxCell id="8MPWDMkR1AbfoVLzU7Ty-10" value="" style="edgeStyle=entityRelationEdgeStyle;fontSize=12;html=1;endArrow=ERmandOne;startArrow=ERoneToMany;rounded=0;exitX=1.006;exitY=0.17;exitDx=0;exitDy=0;exitPerimeter=0;startFill=0;endFill=0;entryX=0;entryY=0.25;entryDx=0;entryDy=0;" edge="1" parent="1" source="8MPWDMkR1AbfoVLzU7Ty-2" target="8MPWDMkR1AbfoVLzU7Ty-4">
          <mxGeometry width="100" height="100" relative="1" as="geometry">
            <mxPoint x="220" y="160" as="sourcePoint" />
            <mxPoint x="320" y="60" as="targetPoint" />
          </mxGeometry>
        </mxCell>
        <mxCell id="8MPWDMkR1AbfoVLzU7Ty-11" value="Plays/&lt;br&gt;Played by" style="edgeLabel;html=1;align=center;verticalAlign=middle;resizable=0;points=[];" vertex="1" connectable="0" parent="8MPWDMkR1AbfoVLzU7Ty-10">
          <mxGeometry x="-0.0026" y="2" relative="1" as="geometry">
            <mxPoint as="offset" />
          </mxGeometry>
        </mxCell>
        <mxCell id="8MPWDMkR1AbfoVLzU7Ty-12" value="Manager" style="swimlane;childLayout=stackLayout;horizontal=1;startSize=50;horizontalStack=0;rounded=1;fontSize=14;fontStyle=0;strokeWidth=2;resizeParent=0;resizeLast=1;shadow=0;dashed=0;align=center;arcSize=4;whiteSpace=wrap;html=1;fillColor=#dae8fc;strokeColor=#6c8ebf;" vertex="1" parent="1">
          <mxGeometry x="50" y="310" width="160" height="120" as="geometry" />
        </mxCell>
        <mxCell id="8MPWDMkR1AbfoVLzU7Ty-14" value="Manages/&lt;br&gt;Managed by" style="fontSize=12;html=1;endArrow=ERmandOne;startArrow=ERmandOne;rounded=0;entryX=0.5;entryY=0;entryDx=0;entryDy=0;" edge="1" parent="8MPWDMkR1AbfoVLzU7Ty-12" target="8MPWDMkR1AbfoVLzU7Ty-12">
          <mxGeometry width="100" height="100" relative="1" as="geometry">
            <mxPoint x="80" y="-70" as="sourcePoint" />
            <mxPoint x="110" y="50" as="targetPoint" />
            <mxPoint as="offset" />
          </mxGeometry>
        </mxCell>
        <mxCell id="8MPWDMkR1AbfoVLzU7Ty-13" value="+name&amp;nbsp;[RCU]&lt;br&gt;+email&amp;nbsp;[R]&lt;br&gt;+phone_number&amp;nbsp;[R]&lt;br&gt;+experience" style="align=left;strokeColor=none;fillColor=none;spacingLeft=4;fontSize=12;verticalAlign=top;resizable=0;rotatable=0;part=1;html=1;" vertex="1" parent="8MPWDMkR1AbfoVLzU7Ty-12">
          <mxGeometry y="50" width="160" height="70" as="geometry" />
        </mxCell>
        <mxCell id="8MPWDMkR1AbfoVLzU7Ty-15" value="Player" style="swimlane;childLayout=stackLayout;horizontal=1;startSize=50;horizontalStack=0;rounded=1;fontSize=14;fontStyle=0;strokeWidth=2;resizeParent=0;resizeLast=1;shadow=0;dashed=0;align=center;arcSize=4;whiteSpace=wrap;html=1;fillColor=#fff2cc;strokeColor=#d6b656;" vertex="1" parent="1">
          <mxGeometry x="560" y="10" width="160" height="120" as="geometry" />
        </mxCell>
        <mxCell id="8MPWDMkR1AbfoVLzU7Ty-16" value="+name&amp;nbsp;[RCU]&lt;br&gt;+email&amp;nbsp;[R]&lt;br&gt;+phone_number&amp;nbsp;[R]&lt;br&gt;+school_year&amp;nbsp;[R]" style="align=left;strokeColor=none;fillColor=none;spacingLeft=4;fontSize=12;verticalAlign=top;resizable=0;rotatable=0;part=1;html=1;" vertex="1" parent="8MPWDMkR1AbfoVLzU7Ty-15">
          <mxGeometry y="50" width="160" height="70" as="geometry" />
        </mxCell>
        <mxCell id="8MPWDMkR1AbfoVLzU7Ty-18" value="" style="fontSize=12;html=1;endArrow=ERoneToMany;startArrow=ERoneToMany;rounded=0;exitX=1;exitY=0.25;exitDx=0;exitDy=0;entryX=0;entryY=0.25;entryDx=0;entryDy=0;startFill=0;endFill=0;" edge="1" parent="1" source="8MPWDMkR1AbfoVLzU7Ty-4" target="8MPWDMkR1AbfoVLzU7Ty-16">
          <mxGeometry width="100" height="100" relative="1" as="geometry">
            <mxPoint x="460" y="180" as="sourcePoint" />
            <mxPoint x="560" y="80" as="targetPoint" />
          </mxGeometry>
        </mxCell>
        <mxCell id="8MPWDMkR1AbfoVLzU7Ty-19" value="Plays/&lt;br&gt;Played by" style="edgeLabel;html=1;align=center;verticalAlign=middle;resizable=0;points=[];" vertex="1" connectable="0" parent="8MPWDMkR1AbfoVLzU7Ty-18">
          <mxGeometry x="0.025" relative="1" as="geometry">
            <mxPoint y="1" as="offset" />
          </mxGeometry>
        </mxCell>
        <mxCell id="8MPWDMkR1AbfoVLzU7Ty-20" value="Stadium" style="swimlane;childLayout=stackLayout;horizontal=1;startSize=50;horizontalStack=0;rounded=1;fontSize=14;fontStyle=0;strokeWidth=2;resizeParent=0;resizeLast=1;shadow=0;dashed=0;align=center;arcSize=4;whiteSpace=wrap;html=1;fillColor=#e1d5e7;strokeColor=#9673a6;" vertex="1" parent="1">
          <mxGeometry x="320" y="170" width="160" height="120" as="geometry" />
        </mxCell>
        <mxCell id="8MPWDMkR1AbfoVLzU7Ty-21" value="+stadium_name [RU]&lt;br&gt;+address [RC]&lt;br&gt;+capacity [R]&lt;br&gt;+home_team [R]" style="align=left;strokeColor=none;fillColor=none;spacingLeft=4;fontSize=12;verticalAlign=top;resizable=0;rotatable=0;part=1;html=1;" vertex="1" parent="8MPWDMkR1AbfoVLzU7Ty-20">
          <mxGeometry y="50" width="160" height="70" as="geometry" />
        </mxCell>
        <mxCell id="8MPWDMkR1AbfoVLzU7Ty-22" value="" style="fontSize=12;html=1;endArrow=ERmandOne;startArrow=ERmandOne;rounded=0;exitX=1;exitY=0.75;exitDx=0;exitDy=0;" edge="1" parent="1" source="8MPWDMkR1AbfoVLzU7Ty-2">
          <mxGeometry width="100" height="100" relative="1" as="geometry">
            <mxPoint x="220" y="310" as="sourcePoint" />
            <mxPoint x="320" y="215" as="targetPoint" />
          </mxGeometry>
        </mxCell>
        <mxCell id="8MPWDMkR1AbfoVLzU7Ty-23" value="Has a/&lt;br&gt;Plays in" style="edgeLabel;html=1;align=center;verticalAlign=middle;resizable=0;points=[];" vertex="1" connectable="0" parent="8MPWDMkR1AbfoVLzU7Ty-22">
          <mxGeometry x="-0.0364" relative="1" as="geometry">
            <mxPoint as="offset" />
          </mxGeometry>
        </mxCell>
        <mxCell id="8MPWDMkR1AbfoVLzU7Ty-24" value="Game" style="swimlane;childLayout=stackLayout;horizontal=1;startSize=50;horizontalStack=0;rounded=1;fontSize=14;fontStyle=0;strokeWidth=2;resizeParent=0;resizeLast=1;shadow=0;dashed=0;align=center;arcSize=4;whiteSpace=wrap;html=1;fillColor=#ffe6cc;strokeColor=#d79b00;" vertex="1" parent="1">
          <mxGeometry x="320" y="400" width="160" height="120" as="geometry" />
        </mxCell>
        <mxCell id="8MPWDMkR1AbfoVLzU7Ty-25" value="+game_name [RU]&lt;br&gt;+date [R]&lt;br&gt;+time [R]&lt;br&gt;+location [R]" style="align=left;strokeColor=none;fillColor=none;spacingLeft=4;fontSize=12;verticalAlign=top;resizable=0;rotatable=0;part=1;html=1;" vertex="1" parent="8MPWDMkR1AbfoVLzU7Ty-24">
          <mxGeometry y="50" width="160" height="70" as="geometry" />
        </mxCell>
        <mxCell id="8MPWDMkR1AbfoVLzU7Ty-26" value="" style="fontSize=12;html=1;endArrow=ERoneToMany;startArrow=ERzeroToMany;rounded=0;entryX=1;entryY=1;entryDx=0;entryDy=0;exitX=0;exitY=0;exitDx=0;exitDy=0;" edge="1" parent="1" source="8MPWDMkR1AbfoVLzU7Ty-24" target="8MPWDMkR1AbfoVLzU7Ty-2">
          <mxGeometry width="100" height="100" relative="1" as="geometry">
            <mxPoint x="240" y="410" as="sourcePoint" />
            <mxPoint x="340" y="310" as="targetPoint" />
          </mxGeometry>
        </mxCell>
        <mxCell id="8MPWDMkR1AbfoVLzU7Ty-27" value="Plays/&lt;br&gt;Has" style="edgeLabel;html=1;align=center;verticalAlign=middle;resizable=0;points=[];" vertex="1" connectable="0" parent="8MPWDMkR1AbfoVLzU7Ty-26">
          <mxGeometry x="-0.0202" y="-1" relative="1" as="geometry">
            <mxPoint as="offset" />
          </mxGeometry>
        </mxCell>
        <mxCell id="8MPWDMkR1AbfoVLzU7Ty-28" value="" style="fontSize=12;html=1;endArrow=ERoneToMany;startArrow=ERzeroToMany;rounded=0;entryX=0.994;entryY=0.629;entryDx=0;entryDy=0;entryPerimeter=0;exitX=0;exitY=0.5;exitDx=0;exitDy=0;" edge="1" parent="1" source="8MPWDMkR1AbfoVLzU7Ty-24" target="8MPWDMkR1AbfoVLzU7Ty-13">
          <mxGeometry width="100" height="100" relative="1" as="geometry">
            <mxPoint x="180" y="530" as="sourcePoint" />
            <mxPoint x="280" y="430" as="targetPoint" />
          </mxGeometry>
        </mxCell>
        <mxCell id="8MPWDMkR1AbfoVLzU7Ty-29" value="Manages a/&lt;br&gt;Managed by" style="edgeLabel;html=1;align=center;verticalAlign=middle;resizable=0;points=[];" vertex="1" connectable="0" parent="8MPWDMkR1AbfoVLzU7Ty-28">
          <mxGeometry x="0.0652" relative="1" as="geometry">
            <mxPoint as="offset" />
          </mxGeometry>
        </mxCell>
        <mxCell id="8MPWDMkR1AbfoVLzU7Ty-30" value="" style="fontSize=12;html=1;endArrow=ERoneToMany;startArrow=ERzeroToMany;rounded=0;entryX=0;entryY=1;entryDx=0;entryDy=0;exitX=1;exitY=0;exitDx=0;exitDy=0;" edge="1" parent="1" source="8MPWDMkR1AbfoVLzU7Ty-24" target="8MPWDMkR1AbfoVLzU7Ty-16">
          <mxGeometry width="100" height="100" relative="1" as="geometry">
            <mxPoint x="520" y="340" as="sourcePoint" />
            <mxPoint x="620" y="240" as="targetPoint" />
          </mxGeometry>
        </mxCell>
        <mxCell id="8MPWDMkR1AbfoVLzU7Ty-31" value="Plays/&lt;br&gt;Has" style="edgeLabel;html=1;align=center;verticalAlign=middle;resizable=0;points=[];" vertex="1" connectable="0" parent="8MPWDMkR1AbfoVLzU7Ty-30">
          <mxGeometry x="0.0537" y="-1" relative="1" as="geometry">
            <mxPoint as="offset" />
          </mxGeometry>
        </mxCell>
        <mxCell id="8MPWDMkR1AbfoVLzU7Ty-32" value="" style="fontSize=12;html=1;endArrow=ERzeroToMany;startArrow=ERmandOne;rounded=0;entryX=0.5;entryY=0;entryDx=0;entryDy=0;exitX=0.5;exitY=1;exitDx=0;exitDy=0;" edge="1" parent="1" source="8MPWDMkR1AbfoVLzU7Ty-21" target="8MPWDMkR1AbfoVLzU7Ty-24">
          <mxGeometry width="100" height="100" relative="1" as="geometry">
            <mxPoint x="360" y="370" as="sourcePoint" />
            <mxPoint x="460" y="270" as="targetPoint" />
          </mxGeometry>
        </mxCell>
        <mxCell id="8MPWDMkR1AbfoVLzU7Ty-33" value="Has/&lt;br&gt;Played in" style="edgeLabel;html=1;align=center;verticalAlign=middle;resizable=0;points=[];" vertex="1" connectable="0" parent="8MPWDMkR1AbfoVLzU7Ty-32">
          <mxGeometry x="-0.1636" relative="1" as="geometry">
            <mxPoint as="offset" />
          </mxGeometry>
        </mxCell>
        <mxCell id="8MPWDMkR1AbfoVLzU7Ty-34" value="Ticket" style="swimlane;childLayout=stackLayout;horizontal=1;startSize=50;horizontalStack=0;rounded=1;fontSize=14;fontStyle=0;strokeWidth=2;resizeParent=0;resizeLast=1;shadow=0;dashed=0;align=center;arcSize=4;whiteSpace=wrap;html=1;fillColor=#bac8d3;strokeColor=#23445d;" vertex="1" parent="1">
          <mxGeometry x="570" y="310" width="160" height="120" as="geometry" />
        </mxCell>
        <mxCell id="8MPWDMkR1AbfoVLzU7Ty-35" value="+serial_num [RU]&lt;br&gt;+game_id [R]&lt;br&gt;+seat_no [R]&lt;br&gt;+price [R]" style="align=left;strokeColor=none;fillColor=none;spacingLeft=4;fontSize=12;verticalAlign=top;resizable=0;rotatable=0;part=1;html=1;" vertex="1" parent="8MPWDMkR1AbfoVLzU7Ty-34">
          <mxGeometry y="50" width="160" height="70" as="geometry" />
        </mxCell>
        <mxCell id="8MPWDMkR1AbfoVLzU7Ty-36" value="Sells/&lt;br&gt;Sold at" style="fontSize=12;html=1;endArrow=ERoneToMany;startArrow=ERoneToMany;rounded=0;entryX=1;entryY=0.75;entryDx=0;entryDy=0;exitX=0;exitY=0.25;exitDx=0;exitDy=0;" edge="1" parent="1" source="8MPWDMkR1AbfoVLzU7Ty-34" target="8MPWDMkR1AbfoVLzU7Ty-21">
          <mxGeometry width="100" height="100" relative="1" as="geometry">
            <mxPoint x="370" y="320" as="sourcePoint" />
            <mxPoint x="470" y="220" as="targetPoint" />
          </mxGeometry>
        </mxCell>
        <mxCell id="8MPWDMkR1AbfoVLzU7Ty-37" value="" style="fontSize=12;html=1;endArrow=ERoneToMany;startArrow=ERmandOne;rounded=0;exitX=1;exitY=0;exitDx=0;exitDy=0;" edge="1" parent="1" source="8MPWDMkR1AbfoVLzU7Ty-25">
          <mxGeometry width="100" height="100" relative="1" as="geometry">
            <mxPoint x="470" y="500" as="sourcePoint" />
            <mxPoint x="570" y="400" as="targetPoint" />
          </mxGeometry>
        </mxCell>
        <mxCell id="8MPWDMkR1AbfoVLzU7Ty-38" value="Has/&lt;br&gt;Admits to" style="edgeLabel;html=1;align=center;verticalAlign=middle;resizable=0;points=[];" vertex="1" connectable="0" parent="8MPWDMkR1AbfoVLzU7Ty-37">
          <mxGeometry x="-0.0264" relative="1" as="geometry">
            <mxPoint as="offset" />
          </mxGeometry>
        </mxCell>
        <mxCell id="8MPWDMkR1AbfoVLzU7Ty-39" value="Food" style="swimlane;childLayout=stackLayout;horizontal=1;startSize=50;horizontalStack=0;rounded=1;fontSize=14;fontStyle=0;strokeWidth=2;resizeParent=0;resizeLast=1;shadow=0;dashed=0;align=center;arcSize=4;whiteSpace=wrap;html=1;fillColor=#b0e3e6;strokeColor=#0e8088;" vertex="1" parent="1">
          <mxGeometry x="600" y="160" width="160" height="120" as="geometry" />
        </mxCell>
        <mxCell id="8MPWDMkR1AbfoVLzU7Ty-40" value="+food_name [RU]&lt;br&gt;+quantity [R]&lt;br&gt;+price [R]&lt;br&gt;+stadium_stand_num [R]" style="align=left;strokeColor=none;fillColor=none;spacingLeft=4;fontSize=12;verticalAlign=top;resizable=0;rotatable=0;part=1;html=1;" vertex="1" parent="8MPWDMkR1AbfoVLzU7Ty-39">
          <mxGeometry y="50" width="160" height="70" as="geometry" />
        </mxCell>
        <mxCell id="8MPWDMkR1AbfoVLzU7Ty-41" value="" style="fontSize=12;html=1;endArrow=ERzeroToMany;startArrow=ERmandOne;rounded=0;entryX=0;entryY=0;entryDx=0;entryDy=0;exitX=1;exitY=0;exitDx=0;exitDy=0;" edge="1" parent="1" source="8MPWDMkR1AbfoVLzU7Ty-21" target="8MPWDMkR1AbfoVLzU7Ty-40">
          <mxGeometry width="100" height="100" relative="1" as="geometry">
            <mxPoint x="370" y="320" as="sourcePoint" />
            <mxPoint x="470" y="220" as="targetPoint" />
          </mxGeometry>
        </mxCell>
        <mxCell id="8MPWDMkR1AbfoVLzU7Ty-42" value="Sells/&lt;br&gt;Available in" style="edgeLabel;html=1;align=center;verticalAlign=middle;resizable=0;points=[];" vertex="1" connectable="0" parent="8MPWDMkR1AbfoVLzU7Ty-41">
          <mxGeometry x="0.1655" y="-1" relative="1" as="geometry">
            <mxPoint as="offset" />
          </mxGeometry>
        </mxCell>
        <mxCell id="8MPWDMkR1AbfoVLzU7Ty-43" value="Merchandise" style="swimlane;childLayout=stackLayout;horizontal=1;startSize=50;horizontalStack=0;rounded=1;fontSize=14;fontStyle=0;strokeWidth=2;resizeParent=0;resizeLast=1;shadow=0;dashed=0;align=center;arcSize=4;whiteSpace=wrap;html=1;fillColor=#b1ddf0;strokeColor=#10739e;" vertex="1" parent="1">
          <mxGeometry x="80" y="-120" width="160" height="150" as="geometry" />
        </mxCell>
        <mxCell id="8MPWDMkR1AbfoVLzU7Ty-44" value="+merch_id [RU]&lt;br&gt;+name [R]&lt;br&gt;+type [R]&lt;br&gt;+quantity [R]&lt;br&gt;+price [R]&lt;br&gt;+stadium_sold_at [R]" style="align=left;strokeColor=none;fillColor=none;spacingLeft=4;fontSize=12;verticalAlign=top;resizable=0;rotatable=0;part=1;html=1;" vertex="1" parent="8MPWDMkR1AbfoVLzU7Ty-43">
          <mxGeometry y="50" width="160" height="100" as="geometry" />
        </mxCell>
        <mxCell id="8MPWDMkR1AbfoVLzU7Ty-45" value="" style="fontSize=12;html=1;endArrow=ERoneToMany;startArrow=ERmandOne;rounded=0;exitX=0.444;exitY=-0.02;exitDx=0;exitDy=0;exitPerimeter=0;entryX=0.25;entryY=1;entryDx=0;entryDy=0;" edge="1" parent="1" source="8MPWDMkR1AbfoVLzU7Ty-1" target="8MPWDMkR1AbfoVLzU7Ty-44">
          <mxGeometry width="100" height="100" relative="1" as="geometry">
            <mxPoint x="20" y="130" as="sourcePoint" />
            <mxPoint x="120" y="30" as="targetPoint" />
          </mxGeometry>
        </mxCell>
        <mxCell id="8MPWDMkR1AbfoVLzU7Ty-46" value="Has/&lt;br&gt;Belongs to" style="edgeLabel;html=1;align=center;verticalAlign=middle;resizable=0;points=[];" vertex="1" connectable="0" parent="8MPWDMkR1AbfoVLzU7Ty-45">
          <mxGeometry x="0.0529" relative="1" as="geometry">
            <mxPoint as="offset" />
          </mxGeometry>
        </mxCell>
        <mxCell id="8MPWDMkR1AbfoVLzU7Ty-47" value="" style="fontSize=12;html=1;endArrow=ERoneToMany;startArrow=ERmandOne;rounded=0;entryX=1;entryY=1;entryDx=0;entryDy=0;exitX=0.156;exitY=-0.033;exitDx=0;exitDy=0;exitPerimeter=0;" edge="1" parent="1" source="8MPWDMkR1AbfoVLzU7Ty-20" target="8MPWDMkR1AbfoVLzU7Ty-44">
          <mxGeometry width="100" height="100" relative="1" as="geometry">
            <mxPoint x="360" y="230" as="sourcePoint" />
            <mxPoint x="460" y="130" as="targetPoint" />
          </mxGeometry>
        </mxCell>
        <mxCell id="8MPWDMkR1AbfoVLzU7Ty-48" value="Sells/&lt;br&gt;Sold at" style="edgeLabel;html=1;align=center;verticalAlign=middle;resizable=0;points=[];" vertex="1" connectable="0" parent="8MPWDMkR1AbfoVLzU7Ty-47">
          <mxGeometry x="-0.4343" y="-1" relative="1" as="geometry">
            <mxPoint as="offset" />
          </mxGeometry>
        </mxCell>
      </root>
    </mxGraphModel>
  </diagram>
</mxfile>
